<svg xmlns="http://www.w3.org/2000/svg" viewBox="0 0 18.186 18.186">
    <defs>
        <style>
            .cls-1{fill:#414e5a}
        </style>
    </defs>
    <path id="instagram" d="M5.019 18.186A5.024 5.024 0 0 1 0 13.167V5.019A5.024 5.024 0 0 1 5.019 0h8.148a5.025 5.025 0 0 1 5.019 5.019v8.148a5.025 5.025 0 0 1-5.019 5.019zM1.614 5.019v8.148a3.409 3.409 0 0 0 3.405 3.405h8.148a3.409 3.409 0 0 0 3.405-3.405V5.019a3.409 3.409 0 0 0-3.405-3.405H5.019a3.409 3.409 0 0 0-3.405 3.405zm2.793 4.074a4.686 4.686 0 1 1 4.686 4.687 4.691 4.691 0 0 1-4.686-4.687zm1.614 0A3.073 3.073 0 1 0 9.093 6.02 3.076 3.076 0 0 0 6.02 9.093zm7.119-4.034a1.184 1.184 0 1 1 .836.346 1.195 1.195 0 0 1-.836-.346z" class="cls-1"/>
</svg>
